<?xml version="1.0" standalone="no"?>
<!DOCTYPE svg PUBLIC "-//W3C//DTD SVG 20010904//EN"
 "http://www.w3.org/TR/2001/REC-SVG-20010904/DTD/svg10.dtd">
<svg version="1.0" xmlns="http://www.w3.org/2000/svg"
 width="1920.000000pt" height="1920.000000pt" viewBox="0 0 1920.000000 1920.000000"
 preserveAspectRatio="xMidYMid meet">
<metadata>
Created by potrace 1.11, written by Peter Selinger 2001-2013
</metadata>
<g transform="translate(0.000000,1920.000000) scale(0.100000,-0.100000)"
fill="#000000" stroke="none">
<path d="M11876 18274 c-9 -8 -16 -27 -17 -42 0 -15 -2 -58 -4 -96 -2 -38 -6
-139 -10 -225 -3 -86 -7 -194 -10 -241 -2 -47 -6 -159 -10 -250 -3 -91 -8
-208 -10 -260 -3 -52 -7 -156 -10 -230 -3 -74 -7 -184 -10 -245 -2 -60 -7
-182 -10 -270 -3 -88 -8 -203 -10 -255 -2 -52 -7 -178 -10 -280 -3 -102 -8
-232 -11 -289 -2 -57 -6 -167 -9 -245 -2 -79 -7 -205 -10 -282 -8 -227 -16
-440 -20 -584 -3 -74 -7 -202 -10 -285 -3 -82 -8 -220 -11 -305 -2 -85 -6
-218 -9 -295 -3 -77 -7 -212 -10 -300 -3 -88 -7 -227 -10 -310 -3 -82 -8 -217
-10 -300 -3 -82 -7 -220 -10 -305 -3 -85 -7 -218 -10 -295 -13 -429 -16 -520
-20 -625 -2 -63 -7 -216 -10 -340 -7 -231 -8 -288 -21 -690 -13 -424 -11 -456
21 -527 43 -96 140 -175 232 -189 21 -3 47 -7 59 -9 55 -9 181 35 226 79 18
18 152 130 240 201 78 63 400 287 463 321 11 6 61 35 110 64 226 133 547 283
767 359 80 28 281 89 318 96 8 2 38 9 65 15 28 6 61 14 75 16 63 12 79 15 135
23 164 26 253 33 421 33 220 0 305 -11 606 -77 44 -10 261 -86 323 -114 254
-115 473 -253 698 -440 93 -78 340 -317 412 -401 263 -304 441 -543 676 -910
115 -179 112 -170 115 -303 4 -223 21 -776 29 -947 2 -63 7 -178 10 -255 3
-77 8 -185 10 -240 3 -55 7 -149 10 -210 2 -60 7 -150 10 -200 3 -49 7 -139
10 -200 3 -60 7 -139 10 -175 2 -36 7 -108 10 -160 5 -108 14 -257 20 -345 3
-33 7 -100 10 -150 3 -49 7 -108 9 -130 2 -22 7 -87 11 -145 4 -58 8 -121 10
-140 2 -19 6 -82 10 -140 3 -58 8 -116 10 -130 2 -14 6 -65 10 -115 3 -49 8
-106 10 -125 2 -19 7 -75 10 -125 3 -49 8 -103 10 -120 2 -16 6 -61 10 -100
10 -118 16 -179 20 -210 2 -16 7 -67 10 -113 3 -45 8 -90 10 -100 2 -10 6 -52
10 -93 3 -41 8 -92 11 -114 2 -22 6 -60 9 -85 3 -25 7 -67 10 -95 2 -27 7 -66
9 -85 3 -19 8 -58 10 -85 3 -28 7 -70 10 -95 3 -25 13 -101 21 -170 9 -69 18
-142 20 -162 3 -21 7 -57 10 -80 3 -24 8 -60 11 -81 3 -20 7 -47 9 -60 10 -85
17 -135 20 -157 4 -22 10 -65 32 -208 12 -83 97 -92 109 -12 2 8 5 33 9 56 3
22 8 52 10 65 2 13 6 42 10 64 3 22 10 67 15 100 5 33 11 83 15 110 8 63 14
112 20 150 2 17 7 57 10 90 4 33 8 71 11 85 2 14 6 45 9 70 10 88 16 136 20
180 3 25 7 64 10 87 3 24 7 64 10 90 3 27 8 64 10 83 3 19 7 64 10 100 3 36 8
81 10 100 3 19 7 62 10 95 3 33 8 76 10 95 3 19 7 64 10 100 3 36 7 85 10 110
2 25 7 74 10 110 3 36 8 85 10 110 6 57 14 157 20 235 3 33 7 85 10 115 2 30
7 87 10 125 3 39 7 95 10 125 2 30 7 89 10 130 3 41 7 102 10 135 3 33 8 96
11 140 3 44 7 100 9 125 2 25 6 99 10 165 4 66 8 136 10 155 2 19 6 89 10 155
4 66 8 140 10 165 2 25 6 104 10 175 3 72 8 159 10 195 2 36 6 121 10 190 3
69 8 168 10 220 3 52 7 149 10 215 2 66 7 170 10 230 12 268 33 951 39 1295 3
159 -8 221 -53 315 -85 178 -333 576 -503 807 -45 62 -85 115 -88 118 -3 3
-21 25 -40 50 -215 278 -515 582 -794 805 -429 341 -931 594 -1411 710 -98 24
-103 25 -165 35 -30 6 -66 12 -80 15 -14 3 -45 8 -70 11 -25 3 -52 8 -61 9 -9
2 -52 6 -95 10 -43 4 -92 9 -109 11 -47 6 -392 5 -465 -1 -200 -17 -478 -58
-585 -87 -22 -5 -47 -11 -56 -13 -56 -11 -341 -99 -444 -137 -245 -91 -737
-326 -787 -376 -7 -7 -15 -12 -20 -12 -14 0 -279 -172 -403 -261 -66 -47 -121
-85 -123 -84 -3 3 -12 249 -27 765 -10 331 -16 526 -31 950 -3 91 -7 224 -9
295 -11 350 -16 500 -20 610 -2 66 -7 206 -10 310 -3 105 -8 246 -10 315 -3
69 -7 197 -10 285 -3 88 -7 216 -10 285 -3 69 -7 195 -10 280 -5 152 -11 307
-20 545 -2 66 -7 188 -10 270 -3 83 -7 204 -10 270 -3 66 -7 185 -10 265 -9
258 -15 392 -20 520 -10 253 -22 556 -30 765 -3 77 -7 185 -10 240 -8 183 -16
359 -20 438 -2 43 -9 84 -15 92 -16 20 -55 19 -74 -1z"/>
<path d="M5669 12886 c-2 -2 -44 -7 -94 -11 -352 -26 -741 -118 -1083 -254
-146 -58 -146 -58 -77 -66 33 -4 71 -8 85 -11 14 -2 68 -8 120 -14 52 -6 106
-12 120 -15 14 -2 48 -6 75 -10 384 -48 860 -151 1170 -253 266 -88 522 -200
735 -321 203 -115 391 -245 540 -371 36 -30 78 -66 95 -80 125 -106 358 -365
501 -557 65 -87 243 -360 253 -387 2 -6 15 -28 28 -49 75 -119 302 -614 340
-742 2 -5 32 -94 67 -197 35 -104 63 -188 61 -188 -2 0 6 -27 16 -61 44 -142
137 -535 153 -646 2 -17 6 -35 9 -40 3 -4 8 -32 11 -61 3 -30 8 -57 10 -60 2
-4 7 -34 11 -67 3 -32 8 -62 10 -65 1 -3 6 -30 9 -61 4 -31 8 -65 10 -75 2
-11 7 -46 10 -79 4 -33 9 -71 11 -85 2 -14 6 -56 10 -95 4 -38 8 -77 10 -85 1
-8 6 -60 10 -115 4 -55 8 -116 10 -135 18 -193 24 -823 11 -1185 -4 -104 -6
-188 -3 -185 22 27 144 243 202 359 175 349 323 808 390 1209 25 152 28 174
40 272 24 204 30 325 30 605 0 283 -10 481 -29 600 -3 17 -8 53 -11 80 -3 28
-8 60 -10 72 -3 12 -7 39 -10 60 -3 21 -7 49 -10 63 -3 14 -8 41 -11 60 -12
72 -65 299 -96 405 -110 389 -270 762 -466 1090 -91 154 -278 412 -382 530
-381 430 -768 719 -1250 933 -152 68 -443 168 -540 186 -14 2 -56 12 -95 21
-76 18 -263 50 -347 60 -29 3 -71 8 -93 11 -46 6 -551 15 -556 10z"/>
<path d="M3777 10644 c-1 -1 -29 -4 -62 -7 -217 -22 -410 -82 -630 -194 -73
-37 -269 -164 -320 -208 -16 -14 -50 -42 -75 -63 -178 -148 -373 -381 -547
-657 -38 -59 -151 -295 -189 -392 -78 -198 -157 -512 -180 -708 -3 -33 -8 -68
-9 -77 -2 -9 -6 -48 -10 -85 -3 -37 -8 -88 -11 -113 -7 -70 -6 -162 2 -205 28
-155 170 -295 329 -324 46 -9 174 -7 220 2 32 7 317 32 475 42 138 9 335 22
445 30 33 2 107 7 165 10 58 4 121 8 140 10 19 2 82 6 140 9 58 4 123 8 145
11 22 2 76 6 120 10 196 14 224 16 261 20 21 2 80 7 129 10 50 4 108 8 130 11
22 2 72 6 110 9 39 3 95 8 125 11 30 3 80 7 110 9 30 3 80 7 110 10 101 10
224 21 347 30 35 3 75 7 90 9 16 3 66 8 113 11 46 4 96 9 110 10 14 2 63 6
110 10 47 3 96 8 110 10 14 3 52 7 85 10 72 6 166 15 220 21 22 2 61 6 88 9
26 3 68 7 95 10 26 3 65 7 87 9 22 3 72 8 110 12 39 3 78 8 87 10 9 1 48 6 85
9 37 4 82 9 98 11 17 2 54 7 84 9 74 7 91 19 91 60 0 29 -4 35 -32 44 -18 5
-62 13 -98 16 -36 4 -76 8 -90 10 -14 2 -54 6 -90 10 -36 4 -76 8 -90 10 -23
3 -67 8 -185 20 -22 2 -60 6 -85 9 -90 10 -166 18 -210 22 -25 2 -70 6 -100 9
-30 3 -73 8 -95 10 -22 3 -69 7 -105 10 -36 3 -81 7 -100 9 -19 3 -66 7 -105
11 -38 3 -88 8 -110 10 -22 2 -71 7 -110 10 -38 3 -88 8 -110 10 -67 6 -167
15 -230 20 -33 3 -82 7 -110 10 -27 3 -84 7 -125 10 -41 3 -93 8 -115 11 -22
2 -71 7 -110 9 -38 3 -94 7 -122 10 -82 8 -151 14 -238 20 -44 3 -102 8 -130
10 -64 6 -194 16 -265 20 -96 6 -223 15 -270 20 -25 2 -97 7 -160 11 -63 3
-131 7 -150 9 -19 2 -89 6 -155 11 -120 7 -164 10 -177 13 -12 2 -1 33 115
311 143 343 201 473 281 625 242 459 510 756 914 1011 131 83 142 92 142 118
-1 38 -26 58 -87 71 -10 2 -38 8 -63 14 -70 15 -156 24 -263 25 -54 1 -99 1
-100 0z"/>
<path d="M14077 8894 c-1 -1 -31 -4 -67 -8 -108 -10 -151 -17 -240 -37 -497
-114 -989 -382 -1521 -829 -203 -171 -526 -501 -730 -747 -26 -32 -65 -111
-78 -158 -35 -135 -46 -1225 -16 -1740 2 -38 6 -121 10 -182 3 -62 8 -132 10
-155 2 -24 7 -83 10 -133 3 -49 8 -103 10 -120 2 -16 6 -61 10 -100 5 -70 11
-120 20 -205 12 -102 17 -136 21 -160 2 -14 6 -52 9 -85 3 -33 10 -85 15 -115
6 -30 12 -68 14 -85 6 -48 36 -238 41 -265 3 -14 10 -52 16 -85 6 -33 19 -104
30 -158 10 -53 21 -112 24 -130 5 -26 75 -327 91 -390 2 -9 7 -27 10 -40 6
-26 7 -29 23 -87 37 -132 84 -281 103 -329 l22 -54 28 84 c37 109 97 309 113
379 7 30 22 91 33 135 12 44 23 91 26 105 3 14 7 35 10 47 4 13 8 33 11 45 13
60 16 75 20 97 3 14 14 68 25 122 11 53 22 113 26 134 3 21 8 47 10 59 11 57
35 202 49 301 9 61 18 121 20 135 8 56 15 107 20 150 3 25 7 61 10 80 4 33 7
63 20 190 3 30 8 66 10 80 2 14 6 61 10 105 3 44 7 103 10 130 8 81 14 163 20
270 4 55 8 123 10 150 17 236 25 1031 15 1415 l-4 135 78 104 c43 57 84 111
92 120 7 9 35 44 63 79 246 311 476 562 765 837 267 253 621 483 877 568 55
19 165 48 199 53 14 2 52 8 85 13 69 11 284 6 365 -8 30 -5 56 -8 57 -7 2 1
-28 25 -65 53 -160 122 -380 207 -588 228 -56 6 -252 13 -257 9z"/>
<path d="M2156 6291 c-14 -16 -16 -31 -11 -87 23 -272 135 -642 286 -949 297
-606 776 -1091 1394 -1412 209 -109 539 -242 692 -278 10 -3 86 -22 168 -44
83 -22 164 -42 180 -44 17 -3 55 -10 85 -16 73 -14 118 -21 159 -27 36 -5 79
-11 121 -19 14 -2 54 -7 90 -11 36 -3 81 -8 100 -10 48 -5 174 -15 235 -19 28
-1 113 -7 190 -11 255 -15 995 -7 1025 11 3 2 39 6 79 10 41 4 84 9 95 11 12
2 37 6 56 9 30 4 104 16 120 20 3 1 25 5 50 9 159 27 524 134 730 214 52 20
97 37 100 38 6 1 20 7 100 40 38 16 56 19 59 11 10 -30 184 -434 231 -537 98
-215 236 -486 333 -655 44 -77 52 -85 83 -85 29 0 50 28 54 75 13 133 2 925
-15 1110 -6 71 -14 177 -20 270 -3 44 -8 91 -10 105 -2 14 -7 63 -10 110 -4
47 -9 92 -10 101 -2 8 -6 49 -10 90 -16 179 -59 264 -170 334 -92 57 -169 71
-292 50 -43 -8 -96 -16 -118 -20 -79 -11 -251 -39 -345 -55 -30 -5 -71 -12
-90 -15 -35 -6 -88 -15 -125 -21 -11 -2 -85 -15 -165 -29 -184 -32 -409 -73
-490 -90 -29 -6 -115 -24 -145 -30 -12 -3 -142 -32 -290 -66 -149 -33 -281
-63 -295 -65 -14 -3 -79 -16 -145 -29 -135 -27 -169 -33 -290 -50 -291 -40
-708 -49 -975 -20 -19 2 -64 7 -100 10 -36 4 -72 9 -81 10 -9 2 -40 6 -70 10
-30 3 -62 8 -72 11 -10 3 -30 7 -45 9 -153 20 -500 119 -667 190 -247 106
-388 184 -579 318 -263 186 -506 430 -692 697 -70 101 -114 168 -114 174 0 3
-11 21 -25 41 -63 94 -201 394 -250 543 -26 81 -62 104 -99 63z"/>
</g>
</svg>
